<svg width="24" height="24" fill="none" xmlns="http://www.w3.org/2000/svg"><path fill-rule="evenodd" clip-rule="evenodd" d="M6.329 8.347l.603 7.173c.044.552.495.965 1.046.965h10.917c.52 0 .966-.387 1.04-.902l.95-6.56a.587.587 0 00-.112-.438.58.58 0 00-.388-.23c-.21.007-8.882-.005-14.056-.008zm1.647 9.638a2.562 2.562 0 01-2.54-2.342L4.522 4.748l-1.507-.26a.752.752 0 01-.612-.868.76.76 0 01.867-.61l2.08.36c.335.058.59.336.619.676l.235 2.801c14.276.006 14.322.013 14.39.021a2.083 2.083 0 011.382.82c.334.447.474.998.394 1.55l-.95 6.559a2.562 2.562 0 01-2.522 2.188H7.976z" fill="#07143B"/><path fill-rule="evenodd" clip-rule="evenodd" d="M17.288 12.044h-2.772a.75.75 0 110-1.5h2.772a.75.75 0 010 1.5m-9.743 8.658a.543.543 0 110 1.09.544.544 0 110-1.09" fill="#07143B"/><mask id="a" style="mask-type:alpha" maskUnits="userSpaceOnUse" x="7" y="20" width="2" height="2"><path fill-rule="evenodd" clip-rule="evenodd" d="M7 21.245a.544.544 0 101.09 0 .543.543 0 00-.544-.544.544.544 0 00-.546.544z" fill="#fff"/></mask><g mask="url(#a)"><path fill-rule="evenodd" clip-rule="evenodd" d="M2 26.79h11.089V15.701H2v11.09z" fill="#07143B"/></g><path fill-rule="evenodd" clip-rule="evenodd" d="M7.544 21.041a.205.205 0 00-.205.205c0 .227.411.227.411 0a.206.206 0 00-.206-.205m0 1.5a1.296 1.296 0 010-2.589 1.296 1.296 0 010 2.59m11.282-1.84a.544.544 0 11.002 1.088.544.544 0 01-.002-1.088" fill="#07143B"/><mask id="b" style="mask-type:alpha" maskUnits="userSpaceOnUse" x="18" y="20" width="2" height="2"><path fill-rule="evenodd" clip-rule="evenodd" d="M18.281 21.245a.546.546 0 101.09 0 .545.545 0 00-.545-.544.544.544 0 00-.545.544z" fill="#fff"/></mask><g mask="url(#b)"><path fill-rule="evenodd" clip-rule="evenodd" d="M13.281 26.79h11.09V15.701h-11.09v11.09z" fill="#07143B"/></g><path fill-rule="evenodd" clip-rule="evenodd" d="M18.825 21.041a.205.205 0 00-.204.205c.001.23.411.227.41 0a.206.206 0 00-.206-.205m0 1.5a1.295 1.295 0 11.002-2.588 1.295 1.295 0 01-.002 2.588" fill="#07143B"/></svg>