<svg width="24" height="24" fill="none" xmlns="http://www.w3.org/2000/svg"><mask id="a" style="mask-type:alpha" maskUnits="userSpaceOnUse" x="2" y="3" width="21" height="20"><path fill-rule="evenodd" clip-rule="evenodd" d="M2 3h20.473v19.501H2V3z" fill="#fff"/></mask><g mask="url(#a)"><path fill-rule="evenodd" clip-rule="evenodd" d="M3.824 12.123c1.402 4.362 6.941 7.89 8.413 8.762 1.477-.882 7.056-4.448 8.413-8.758.891-2.786.064-6.315-3.222-7.374-1.592-.51-3.449-.2-4.731.792a.75.75 0 01-.91.006 5.234 5.234 0 00-4.749-.798c-3.281 1.058-4.105 4.587-3.214 7.37m8.414 10.378a.748.748 0 01-.359-.09c-.313-.172-7.686-4.236-9.483-9.83h-.001c-1.128-3.523.128-7.949 4.183-9.256a6.729 6.729 0 015.657.714c1.626-1.028 3.786-1.312 5.652-.714 4.059 1.31 5.319 5.734 4.192 9.255-1.739 5.53-9.166 9.655-9.481 9.828a.743.743 0 01-.36.093" fill="#07143B"/></g><path fill-rule="evenodd" clip-rule="evenodd" d="M18.155 10.625a.75.75 0 01-.747-.689 2.024 2.024 0 00-1.4-1.769.75.75 0 01.46-1.428 3.525 3.525 0 012.436 3.075.75.75 0 01-.75.811" fill="#07143B"/></svg>